<?xml version="1.0" encoding="UTF-8"?><svg xmlns="http://www.w3.org/2000/svg" xmlns:xlink="http://www.w3.org/1999/xlink" fill-opacity="1" color-rendering="auto" color-interpolation="auto" stroke="black" text-rendering="auto" stroke-linecap="square" width="570" stroke-miterlimit="10" stroke-opacity="1" shape-rendering="auto" fill="black" stroke-dasharray="none" font-weight="normal" stroke-width="1" height="438" font-family="'Dialog'" font-style="normal" stroke-linejoin="miter" font-size="12" stroke-dashoffset="0" image-rendering="auto">
  <!--Generated by ySVG 2.5-->
  <defs id="genericDefs"/>
  <g>
    <defs id="defs1">
      <clipPath clipPathUnits="userSpaceOnUse" id="clipPath1">
        <path d="M0 0 L570 0 L570 438 L0 438 L0 0 Z"/>
      </clipPath>
      <clipPath clipPathUnits="userSpaceOnUse" id="clipPath2">
        <path d="M209 174 L779 174 L779 612 L209 612 L209 174 Z"/>
      </clipPath>
    </defs>
    <g fill="white" text-rendering="optimizeQuality" shape-rendering="geometricPrecision" transform="translate(-209,-174)" stroke="white">
      <rect x="209" width="570" height="438" y="174" clip-path="url(#clipPath2)" stroke="none"/>
    </g>
    <g text-rendering="optimizeQuality" stroke-miterlimit="1.45" shape-rendering="geometricPrecision" font-family="sans-serif" transform="matrix(1,0,0,1,-209,-174)" stroke-linecap="butt">
      <text x="372.6582" xml:space="preserve" y="282.7139" clip-path="url(#clipPath2)" stroke="none">plasma</text>
      <rect fill="none" x="362" width="60" height="30" y="263" clip-path="url(#clipPath2)"/>
      <text x="456.3213" xml:space="preserve" y="374.7139" clip-path="url(#clipPath2)" stroke="none">mlite_cpu</text>
      <rect fill="none" x="452" width="60" height="30" y="355" clip-path="url(#clipPath2)"/>
      <text x="291.667" xml:space="preserve" y="374.7139" clip-path="url(#clipPath2)" stroke="none">ram</text>
      <rect fill="none" x="272" width="60" height="30" y="355" clip-path="url(#clipPath2)"/>
      <text x="381.6611" xml:space="preserve" y="374.7139" clip-path="url(#clipPath2)" stroke="none">uart</text>
      <rect fill="none" x="362" width="60" height="30" y="355" clip-path="url(#clipPath2)"/>
      <text x="232.9854" xml:space="preserve" y="540.7139" clip-path="url(#clipPath2)" stroke="none">pc_next</text>
      <rect fill="none" x="224" width="60" height="30" y="521" clip-path="url(#clipPath2)"/>
      <text x="289.332" xml:space="preserve" y="586.7139" clip-path="url(#clipPath2)" stroke="none">mem_ctrl</text>
      <rect fill="none" x="284" width="60" height="30" y="567" clip-path="url(#clipPath2)"/>
      <text x="355.9912" xml:space="preserve" y="540.7139" clip-path="url(#clipPath2)" stroke="none">control</text>
      <rect fill="none" x="344" width="60" height="30" y="521" clip-path="url(#clipPath2)"/>
      <text x="408.9805" xml:space="preserve" y="586.7139" clip-path="url(#clipPath2)" stroke="none">reg_bank</text>
      <rect fill="none" x="404" width="60" height="30" y="567" clip-path="url(#clipPath2)"/>
      <text x="469.6543" xml:space="preserve" y="540.7139" clip-path="url(#clipPath2)" stroke="none">bus_mux</text>
      <rect fill="none" x="464" width="60" height="30" y="521" clip-path="url(#clipPath2)"/>
      <text x="545.9932" xml:space="preserve" y="586.7139" clip-path="url(#clipPath2)" stroke="none">alu</text>
      <rect fill="none" x="524" width="60" height="30" y="567" clip-path="url(#clipPath2)"/>
      <text x="597.6611" xml:space="preserve" y="540.7139" clip-path="url(#clipPath2)" stroke="none">shifter</text>
      <rect fill="none" x="584" width="60" height="30" y="521" clip-path="url(#clipPath2)"/>
      <text x="662.665" xml:space="preserve" y="586.7139" clip-path="url(#clipPath2)" stroke="none">mult</text>
      <rect fill="none" x="644" width="60" height="30" y="567" clip-path="url(#clipPath2)"/>
      <text x="274.9941" xml:space="preserve" y="434.7139" clip-path="url(#clipPath2)" stroke="none">ram_xilinx</text>
      <rect fill="none" x="272" width="60" height="30" y="415" clip-path="url(#clipPath2)"/>
      <text x="368.9879" xml:space="preserve" y="208.7139" clip-path="url(#clipPath2)" stroke="none">plasma_if</text>
      <rect fill="none" x="364.6667" width="60" height="30" y="189" clip-path="url(#clipPath2)"/>
      <text x="286.652" xml:space="preserve" y="208.7139" clip-path="url(#clipPath2)" stroke="none">tbench</text>
      <rect fill="none" x="274.6667" width="60" height="30" y="189" clip-path="url(#clipPath2)"/>
      <text x="713.3164" xml:space="preserve" y="542.3806" clip-path="url(#clipPath2)" stroke="none">pipeline</text>
      <rect fill="none" x="704" width="60" height="30" y="522.6667" clip-path="url(#clipPath2)"/>
      <path fill="none" d="M406.6739 293 L461.7317 349.2813" clip-path="url(#clipPath2)"/>
      <path d="M467.3261 355 L462.5087 342.9255 L461.0324 348.5665 L455.3604 349.9185 Z" clip-path="url(#clipPath2)" stroke="none"/>
      <path fill="none" d="M377.3261 293 L322.2683 349.2813" clip-path="url(#clipPath2)"/>
      <path d="M316.6739 355 L328.6396 349.9185 L322.9676 348.5665 L321.4913 342.9255 Z" clip-path="url(#clipPath2)" stroke="none"/>
      <path fill="none" d="M392 293 L392 347" clip-path="url(#clipPath2)"/>
      <path d="M392 355 L397 343 L392 346 L387 343 Z" clip-path="url(#clipPath2)" stroke="none"/>
      <path fill="none" d="M461.3976 385 L281.0699 516.2913" clip-path="url(#clipPath2)"/>
      <path d="M274.6024 521 L287.2466 517.9791 L281.8783 515.7026 L281.3606 509.8947 Z" clip-path="url(#clipPath2)" stroke="none"/>
      <path fill="none" d="M470.1132 385 L330.8554 560.73" clip-path="url(#clipPath2)"/>
      <path d="M325.8868 567 L337.2585 560.7005 L331.4765 559.9463 L329.4211 554.4896 Z" clip-path="url(#clipPath2)" stroke="none"/>
      <path fill="none" d="M472.241 385 L388.1218 514.2943" clip-path="url(#clipPath2)"/>
      <path d="M383.759 521 L394.4942 513.6682 L388.6671 513.4561 L386.1121 508.2147 Z" clip-path="url(#clipPath2)" stroke="none"/>
      <path fill="none" d="M478.6038 385 L439.1628 559.1975" clip-path="url(#clipPath2)"/>
      <path d="M437.3962 567 L444.9227 556.4004 L439.3837 558.2222 L435.1696 554.1921 Z" clip-path="url(#clipPath2)" stroke="none"/>
      <path fill="none" d="M483.0844 385 L492.3389 513.0208" clip-path="url(#clipPath2)"/>
      <path d="M492.9156 521 L497.0375 508.6707 L492.2668 512.0234 L487.0635 509.3917 Z" clip-path="url(#clipPath2)" stroke="none"/>
      <path fill="none" d="M487.0943 385 L546.333 559.4249" clip-path="url(#clipPath2)"/>
      <path d="M548.9056 567 L549.7811 554.0295 L546.0114 558.478 L540.3123 557.2453 Z" clip-path="url(#clipPath2)" stroke="none"/>
      <path fill="none" d="M493.9277 385 L597.0931 514.7383" clip-path="url(#clipPath2)"/>
      <path d="M602.0723 521 L598.5171 508.4956 L596.4708 513.9556 L590.6901 514.7195 Z" clip-path="url(#clipPath2)" stroke="none"/>
      <path fill="none" d="M495.5849 385 L655.0449 561.0704" clip-path="url(#clipPath2)"/>
      <path d="M660.4151 567 L656.0657 554.7491 L654.3736 560.3292 L648.6537 561.462 Z" clip-path="url(#clipPath2)" stroke="none"/>
      <path fill="none" d="M302 385 L302 407" clip-path="url(#clipPath2)"/>
      <path d="M302 415 L307 403 L302 406 L297 403 Z" clip-path="url(#clipPath2)" stroke="none"/>
      <path fill="none" d="M394.1261 219 L392.8286 255.0052" clip-path="url(#clipPath2)"/>
      <path d="M392.5405 263 L397.9695 251.1879 L392.8647 254.0058 L387.976 250.8277 Z" clip-path="url(#clipPath2)" stroke="none"/>
      <path fill="none" d="M322.3694 219 L368.1938 257.8283" clip-path="url(#clipPath2)"/>
      <path d="M374.2973 263 L368.3743 251.4277 L367.4308 257.1818 L361.9097 259.0571 Z" clip-path="url(#clipPath2)" stroke="none"/>
      <path fill="none" d="M504.5447 385 L704.7948 518.2352" clip-path="url(#clipPath2)"/>
      <path d="M711.4553 522.6667 L704.2343 511.8566 L703.9622 517.6812 L698.6949 520.1822 Z" clip-path="url(#clipPath2)" stroke="none"/>
    </g>
  </g>
</svg>
