<?xml version="1.0" encoding="UTF-8" standalone="no"?>
<svg
   xmlns:dc="http://purl.org/dc/elements/1.1/"
   xmlns:cc="http://creativecommons.org/ns#"
   xmlns:rdf="http://www.w3.org/1999/02/22-rdf-syntax-ns#"
   xmlns:svg="http://www.w3.org/2000/svg"
   xmlns="http://www.w3.org/2000/svg"
   xmlns:sodipodi="http://sodipodi.sourceforge.net/DTD/sodipodi-0.dtd"
   xmlns:inkscape="http://www.inkscape.org/namespaces/inkscape"
   fill-opacity="1"
   color-rendering="auto"
   color-interpolation="auto"
   stroke="black"
   text-rendering="auto"
   stroke-linecap="square"
   width="234"
   stroke-miterlimit="10"
   stroke-opacity="1"
   shape-rendering="auto"
   fill="black"
   stroke-dasharray="none"
   font-weight="normal"
   stroke-width="1"
   height="235"
   font-family="'Dialog'"
   font-style="normal"
   stroke-linejoin="miter"
   font-size="12"
   stroke-dashoffset="0"
   image-rendering="auto"
   id="svg2"
   version="1.1"
   inkscape:version="0.48.4 r9939"
   sodipodi:docname="bit_transf.pdf">
  <metadata
     id="metadata108">
    <rdf:RDF>
      <cc:Work
         rdf:about="">
        <dc:format>image/svg+xml</dc:format>
        <dc:type
           rdf:resource="http://purl.org/dc/dcmitype/StillImage" />
        <dc:title></dc:title>
      </cc:Work>
    </rdf:RDF>
  </metadata>
  <sodipodi:namedview
     pagecolor="#ffffff"
     bordercolor="#666666"
     borderopacity="1"
     objecttolerance="10"
     gridtolerance="10"
     guidetolerance="10"
     inkscape:pageopacity="0"
     inkscape:pageshadow="2"
     inkscape:window-width="1920"
     inkscape:window-height="1058"
     id="namedview106"
     showgrid="false"
     inkscape:zoom="2.840463"
     inkscape:cx="130.32953"
     inkscape:cy="130.75629"
     inkscape:window-x="-8"
     inkscape:window-y="-8"
     inkscape:window-maximized="1"
     inkscape:current-layer="g5" />
  <!--Generated by ySVG 2.5-->
  <defs
     id="genericDefs">
    <clipPath
       clipPathUnits="userSpaceOnUse"
       id="clipPath2-1">
      <path
         inkscape:connector-curvature="0"
         d="m 327,181 234,0 0,235 -234,0 0,-235 z"
         id="path12-7" />
    </clipPath>
    <clipPath
       clipPathUnits="userSpaceOnUse"
       id="clipPath3069">
      <path
         inkscape:connector-curvature="0"
         d="m 327,181 234,0 0,235 -234,0 0,-235 z"
         id="path3071" />
    </clipPath>
    <clipPath
       clipPathUnits="userSpaceOnUse"
       id="clipPath3073">
      <path
         inkscape:connector-curvature="0"
         d="m 327,181 234,0 0,235 -234,0 0,-235 z"
         id="path3075" />
    </clipPath>
    <clipPath
       clipPathUnits="userSpaceOnUse"
       id="clipPath3077">
      <path
         inkscape:connector-curvature="0"
         d="m 327,181 234,0 0,235 -234,0 0,-235 z"
         id="path3079" />
    </clipPath>
    <clipPath
       clipPathUnits="userSpaceOnUse"
       id="clipPath3081">
      <path
         inkscape:connector-curvature="0"
         d="m 327,181 234,0 0,235 -234,0 0,-235 z"
         id="path3083" />
    </clipPath>
    <clipPath
       clipPathUnits="userSpaceOnUse"
       id="clipPath3085">
      <path
         inkscape:connector-curvature="0"
         d="m 327,181 234,0 0,235 -234,0 0,-235 z"
         id="path3087" />
    </clipPath>
    <clipPath
       clipPathUnits="userSpaceOnUse"
       id="clipPath3089">
      <path
         inkscape:connector-curvature="0"
         d="m 327,181 234,0 0,235 -234,0 0,-235 z"
         id="path3091" />
    </clipPath>
    <clipPath
       clipPathUnits="userSpaceOnUse"
       id="clipPath3093">
      <path
         inkscape:connector-curvature="0"
         d="m 327,181 234,0 0,235 -234,0 0,-235 z"
         id="path3095" />
    </clipPath>
    <clipPath
       clipPathUnits="userSpaceOnUse"
       id="clipPath3097">
      <path
         inkscape:connector-curvature="0"
         d="m 327,181 234,0 0,235 -234,0 0,-235 z"
         id="path3099" />
    </clipPath>
    <clipPath
       clipPathUnits="userSpaceOnUse"
       id="clipPath3101">
      <path
         inkscape:connector-curvature="0"
         d="m 327,181 234,0 0,235 -234,0 0,-235 z"
         id="path3103" />
    </clipPath>
    <clipPath
       clipPathUnits="userSpaceOnUse"
       id="clipPath3105">
      <path
         inkscape:connector-curvature="0"
         d="m 327,181 234,0 0,235 -234,0 0,-235 z"
         id="path3107" />
    </clipPath>
    <clipPath
       clipPathUnits="userSpaceOnUse"
       id="clipPath3109">
      <path
         inkscape:connector-curvature="0"
         d="m 327,181 234,0 0,235 -234,0 0,-235 z"
         id="path3111" />
    </clipPath>
    <clipPath
       clipPathUnits="userSpaceOnUse"
       id="clipPath3113">
      <path
         inkscape:connector-curvature="0"
         d="m 327,181 234,0 0,235 -234,0 0,-235 z"
         id="path3115" />
    </clipPath>
    <clipPath
       clipPathUnits="userSpaceOnUse"
       id="clipPath3117">
      <path
         inkscape:connector-curvature="0"
         d="m 327,181 234,0 0,235 -234,0 0,-235 z"
         id="path3119" />
    </clipPath>
    <clipPath
       clipPathUnits="userSpaceOnUse"
       id="clipPath3121">
      <path
         inkscape:connector-curvature="0"
         d="m 327,181 234,0 0,235 -234,0 0,-235 z"
         id="path3123" />
    </clipPath>
    <clipPath
       clipPathUnits="userSpaceOnUse"
       id="clipPath3125">
      <path
         inkscape:connector-curvature="0"
         d="m 327,181 234,0 0,235 -234,0 0,-235 z"
         id="path3127" />
    </clipPath>
    <clipPath
       clipPathUnits="userSpaceOnUse"
       id="clipPath3129">
      <path
         inkscape:connector-curvature="0"
         d="m 327,181 234,0 0,235 -234,0 0,-235 z"
         id="path3131" />
    </clipPath>
    <clipPath
       clipPathUnits="userSpaceOnUse"
       id="clipPath3133">
      <path
         inkscape:connector-curvature="0"
         d="m 327,181 234,0 0,235 -234,0 0,-235 z"
         id="path3135" />
    </clipPath>
    <clipPath
       clipPathUnits="userSpaceOnUse"
       id="clipPath3137">
      <path
         inkscape:connector-curvature="0"
         d="m 327,181 234,0 0,235 -234,0 0,-235 z"
         id="path3139" />
    </clipPath>
    <clipPath
       clipPathUnits="userSpaceOnUse"
       id="clipPath3141">
      <path
         inkscape:connector-curvature="0"
         d="m 327,181 234,0 0,235 -234,0 0,-235 z"
         id="path3143" />
    </clipPath>
    <clipPath
       clipPathUnits="userSpaceOnUse"
       id="clipPath3145">
      <path
         inkscape:connector-curvature="0"
         d="m 327,181 234,0 0,235 -234,0 0,-235 z"
         id="path3147" />
    </clipPath>
    <clipPath
       clipPathUnits="userSpaceOnUse"
       id="clipPath3149">
      <path
         inkscape:connector-curvature="0"
         d="m 327,181 234,0 0,235 -234,0 0,-235 z"
         id="path3151" />
    </clipPath>
    <clipPath
       clipPathUnits="userSpaceOnUse"
       id="clipPath3153">
      <path
         inkscape:connector-curvature="0"
         d="m 327,181 234,0 0,235 -234,0 0,-235 z"
         id="path3155" />
    </clipPath>
    <clipPath
       clipPathUnits="userSpaceOnUse"
       id="clipPath3157">
      <path
         inkscape:connector-curvature="0"
         d="m 327,181 234,0 0,235 -234,0 0,-235 z"
         id="path3159" />
    </clipPath>
    <clipPath
       clipPathUnits="userSpaceOnUse"
       id="clipPath3161">
      <path
         inkscape:connector-curvature="0"
         d="m 327,181 234,0 0,235 -234,0 0,-235 z"
         id="path3163" />
    </clipPath>
    <clipPath
       clipPathUnits="userSpaceOnUse"
       id="clipPath3165">
      <path
         inkscape:connector-curvature="0"
         d="m 327,181 234,0 0,235 -234,0 0,-235 z"
         id="path3167" />
    </clipPath>
    <clipPath
       clipPathUnits="userSpaceOnUse"
       id="clipPath3169">
      <path
         inkscape:connector-curvature="0"
         d="m 327,181 234,0 0,235 -234,0 0,-235 z"
         id="path3171" />
    </clipPath>
    <clipPath
       clipPathUnits="userSpaceOnUse"
       id="clipPath3173">
      <path
         inkscape:connector-curvature="0"
         d="m 327,181 234,0 0,235 -234,0 0,-235 z"
         id="path3175" />
    </clipPath>
    <clipPath
       clipPathUnits="userSpaceOnUse"
       id="clipPath3177">
      <path
         inkscape:connector-curvature="0"
         d="m 327,181 234,0 0,235 -234,0 0,-235 z"
         id="path3179" />
    </clipPath>
    <clipPath
       clipPathUnits="userSpaceOnUse"
       id="clipPath3181">
      <path
         inkscape:connector-curvature="0"
         d="m 327,181 234,0 0,235 -234,0 0,-235 z"
         id="path3183" />
    </clipPath>
    <clipPath
       clipPathUnits="userSpaceOnUse"
       id="clipPath3185">
      <path
         inkscape:connector-curvature="0"
         d="m 327,181 234,0 0,235 -234,0 0,-235 z"
         id="path3187" />
    </clipPath>
    <clipPath
       clipPathUnits="userSpaceOnUse"
       id="clipPath3189">
      <path
         inkscape:connector-curvature="0"
         d="m 327,181 234,0 0,235 -234,0 0,-235 z"
         id="path3191" />
    </clipPath>
    <clipPath
       clipPathUnits="userSpaceOnUse"
       id="clipPath3193">
      <path
         inkscape:connector-curvature="0"
         d="m 327,181 234,0 0,235 -234,0 0,-235 z"
         id="path3195" />
    </clipPath>
    <clipPath
       clipPathUnits="userSpaceOnUse"
       id="clipPath3197">
      <path
         inkscape:connector-curvature="0"
         d="m 327,181 234,0 0,235 -234,0 0,-235 z"
         id="path3199" />
    </clipPath>
    <clipPath
       clipPathUnits="userSpaceOnUse"
       id="clipPath3201">
      <path
         inkscape:connector-curvature="0"
         d="m 327,181 234,0 0,235 -234,0 0,-235 z"
         id="path3203" />
    </clipPath>
    <clipPath
       clipPathUnits="userSpaceOnUse"
       id="clipPath3205">
      <path
         inkscape:connector-curvature="0"
         d="m 327,181 234,0 0,235 -234,0 0,-235 z"
         id="path3207" />
    </clipPath>
    <clipPath
       clipPathUnits="userSpaceOnUse"
       id="clipPath3209">
      <path
         inkscape:connector-curvature="0"
         d="m 327,181 234,0 0,235 -234,0 0,-235 z"
         id="path3211" />
    </clipPath>
    <clipPath
       clipPathUnits="userSpaceOnUse"
       id="clipPath3213">
      <path
         inkscape:connector-curvature="0"
         d="m 327,181 234,0 0,235 -234,0 0,-235 z"
         id="path3215" />
    </clipPath>
    <clipPath
       clipPathUnits="userSpaceOnUse"
       id="clipPath3217">
      <path
         inkscape:connector-curvature="0"
         d="m 327,181 234,0 0,235 -234,0 0,-235 z"
         id="path3219" />
    </clipPath>
    <clipPath
       clipPathUnits="userSpaceOnUse"
       id="clipPath3221">
      <path
         inkscape:connector-curvature="0"
         d="m 327,181 234,0 0,235 -234,0 0,-235 z"
         id="path3223" />
    </clipPath>
    <clipPath
       clipPathUnits="userSpaceOnUse"
       id="clipPath3225">
      <path
         inkscape:connector-curvature="0"
         d="m 327,181 234,0 0,235 -234,0 0,-235 z"
         id="path3227" />
    </clipPath>
    <clipPath
       clipPathUnits="userSpaceOnUse"
       id="clipPath3229">
      <path
         inkscape:connector-curvature="0"
         d="m 327,181 234,0 0,235 -234,0 0,-235 z"
         id="path3231" />
    </clipPath>
    <clipPath
       clipPathUnits="userSpaceOnUse"
       id="clipPath3233">
      <path
         inkscape:connector-curvature="0"
         d="m 327,181 234,0 0,235 -234,0 0,-235 z"
         id="path3235" />
    </clipPath>
  </defs>
  <g
     id="g5">
    <defs
       id="defs1">
      <clipPath
         clipPathUnits="userSpaceOnUse"
         id="clipPath1">
        <path
           d="M0 0 L234 0 L234 235 L0 235 L0 0 Z"
           id="path9" />
      </clipPath>
      <clipPath
         clipPathUnits="userSpaceOnUse"
         id="clipPath2">
        <path
           d="M327 181 L561 181 L561 416 L327 416 L327 181 Z"
           id="path12" />
      </clipPath>
    </defs>
    <g
       style="stroke-linecap:butt;stroke-miterlimit:1.45000005;font-family:sans-serif"
       text-rendering="optimizeQuality"
       stroke-miterlimit="1.45"
       shape-rendering="geometricPrecision"
       transform="translate(-334.84529,-189.81804)"
       id="g18">
      <text
         style="stroke:none"
         x="355.30469"
         xml:space="preserve"
         y="215.7139"
         clip-path="url(#clipPath2-1)"
         id="text20"><tspan
           style="fill:#00aad4"
           id="tspan3085">0000000</tspan><tspan
           style="fill:#2ca02c"
           id="tspan3087">0</tspan></text>
      <text
         style="stroke:none"
         x="355.30469"
         xml:space="preserve"
         y="240.7139"
         clip-path="url(#clipPath2-1)"
         id="text22"><tspan
           style="fill:#2ca02c"
           id="tspan3089">000000</tspan><tspan
           style="fill:#00aad4"
           id="tspan3095">01</tspan></text>
      <text
         style="stroke:none"
         x="355.30469"
         xml:space="preserve"
         y="265.7139"
         clip-path="url(#clipPath2-1)"
         id="text24"><tspan
           style="fill:#00aad4"
           id="tspan3097">00000</tspan><tspan
           style="fill:#2ca02c"
           id="tspan3107">010</tspan></text>
      <text
         style="stroke:none"
         x="355.30469"
         xml:space="preserve"
         y="290.7139"
         clip-path="url(#clipPath2-1)"
         id="text26"><tspan
           style="fill:#2ca02c"
           id="tspan3109">0000</tspan><tspan
           style="fill:#0088aa"
           id="tspan3117">0011</tspan></text>
      <text
         style="stroke:none"
         x="355.30469"
         xml:space="preserve"
         y="315.7139"
         clip-path="url(#clipPath2-1)"
         id="text28"><tspan
           style="fill:#0088aa"
           id="tspan3119">000</tspan><tspan
           style="fill:#2ca02c"
           id="tspan3111">00100</tspan></text>
      <text
         style="stroke:none"
         x="355.30469"
         xml:space="preserve"
         y="340.7139"
         clip-path="url(#clipPath2-1)"
         id="text30"><tspan
           style="fill:#2ca02c"
           id="tspan3113">00</tspan><tspan
           style="fill:#0088aa"
           id="tspan3121">000101</tspan></text>
      <text
         style="stroke:none"
         x="355.30469"
         xml:space="preserve"
         y="365.7139"
         clip-path="url(#clipPath2-1)"
         id="text32"><tspan
           style="fill:#0088aa"
           id="tspan3123">0</tspan><tspan
           style="fill:#2ca02c"
           id="tspan3115">0000110</tspan></text>
      <text
         style="stroke:none"
         x="479.30469"
         xml:space="preserve"
         y="215.7139"
         clip-path="url(#clipPath2-1)"
         id="text34">1<tspan
   style="fill:#00aad4"
   id="tspan3105">0000000</tspan></text>
      <text
         style="stroke:none"
         x="479.30469"
         xml:space="preserve"
         y="240.7139"
         clip-path="url(#clipPath2-1)"
         id="text36">1<tspan
   style="fill:#2ca02c"
   id="tspan3103">0000000</tspan></text>
      <text
         style="stroke:none"
         x="479.30469"
         xml:space="preserve"
         y="265.7139"
         clip-path="url(#clipPath2-1)"
         id="text38">1<tspan
   style="fill:#00aad4"
   id="tspan3099">0100000</tspan></text>
      <text
         style="stroke:none"
         x="479.30469"
         xml:space="preserve"
         y="290.7139"
         clip-path="url(#clipPath2-1)"
         id="text40">1<tspan
   style="fill:#2ca02c"
   id="tspan3899">0100000</tspan></text>
      <text
         style="stroke:none"
         x="479.30469"
         xml:space="preserve"
         y="315.7139"
         clip-path="url(#clipPath2-1)"
         id="text42">1<tspan
   style="fill:#00aad4"
   id="tspan3127">0011000</tspan></text>
      <text
         style="stroke:none"
         x="479.30469"
         xml:space="preserve"
         y="340.7139"
         clip-path="url(#clipPath2-1)"
         id="text44">1<tspan
   style="fill:#2ca02c"
   id="tspan3901">0010000</tspan></text>
      <text
         style="stroke:none"
         x="479.30469"
         xml:space="preserve"
         y="365.7139"
         clip-path="url(#clipPath2-1)"
         id="text46">1<tspan
   style="fill:#00aad4"
   id="tspan3129">0001010</tspan></text>
      <text
         style="stroke:none"
         x="479.30469"
         xml:space="preserve"
         y="390.7139"
         clip-path="url(#clipPath2-1)"
         id="text48">1<tspan
   style="fill:#2ca02c"
   id="tspan3903">0000110</tspan></text>
      <path
         style="fill:none"
         inkscape:connector-curvature="0"
         d="m 421.9912,211 36.0144,0"
         clip-path="url(#clipPath2-1)"
         id="path50" />
      <path
         style="stroke:none"
         inkscape:connector-curvature="0"
         d="m 466.0056,211 -12,-5 3,5 -3,5 z"
         clip-path="url(#clipPath2-1)"
         id="path52" />
      <path
         style="fill:none"
         inkscape:connector-curvature="0"
         d="m 421.9912,236 36.0144,0"
         clip-path="url(#clipPath2-1)"
         id="path54" />
      <path
         style="stroke:none"
         inkscape:connector-curvature="0"
         d="m 466.0056,236 -12,-5 3,5 -3,5 z"
         clip-path="url(#clipPath2-1)"
         id="path56" />
      <path
         style="fill:none"
         inkscape:connector-curvature="0"
         d="m 421.9912,219.0627 36.1722,7.2928"
         clip-path="url(#clipPath2-1)"
         id="path58" />
      <path
         style="stroke:none"
         inkscape:connector-curvature="0"
         d="m 466.0056,227.9366 -10.7751,-7.273 1.9526,5.4943 -3.929,4.3084 z"
         clip-path="url(#clipPath2-1)"
         id="path60" />
      <path
         style="fill:none"
         inkscape:connector-curvature="0"
         d="m 421.9912,244.0627 36.1722,7.2928"
         clip-path="url(#clipPath2-1)"
         id="path62" />
      <path
         style="stroke:none"
         inkscape:connector-curvature="0"
         d="m 466.0056,252.9366 -10.7751,-7.273 1.9526,5.4943 -3.929,4.3084 z"
         clip-path="url(#clipPath2-1)"
         id="path64" />
      <path
         style="fill:none"
         inkscape:connector-curvature="0"
         d="m 421.9912,261 36.0144,0"
         clip-path="url(#clipPath2-1)"
         id="path66" />
      <path
         style="stroke:none"
         inkscape:connector-curvature="0"
         d="m 466.0056,261 -12,-5 3,5 -3,5 z"
         clip-path="url(#clipPath2-1)"
         id="path68" />
      <path
         style="fill:none"
         inkscape:connector-curvature="0"
         d="m 421.9912,269.0627 36.1722,7.2928"
         clip-path="url(#clipPath2-1)"
         id="path70" />
      <path
         style="stroke:none"
         inkscape:connector-curvature="0"
         d="m 466.0056,277.9366 -10.7751,-7.273 1.9526,5.4943 -3.929,4.3085 z"
         clip-path="url(#clipPath2-1)"
         id="path72" />
      <path
         style="fill:none"
         inkscape:connector-curvature="0"
         d="m 421.9912,286 36.0144,0"
         clip-path="url(#clipPath2-1)"
         id="path74" />
      <path
         style="stroke:none"
         inkscape:connector-curvature="0"
         d="m 466.0056,286 -12,-5 3,5 -3,5 z"
         clip-path="url(#clipPath2-1)"
         id="path76" />
      <path
         style="fill:none"
         inkscape:connector-curvature="0"
         d="m 421.9912,294.0627 36.1722,7.2928"
         clip-path="url(#clipPath2-1)"
         id="path78" />
      <path
         style="stroke:none"
         inkscape:connector-curvature="0"
         d="m 466.0056,302.9366 -10.7751,-7.273 1.9526,5.4943 -3.929,4.3085 z"
         clip-path="url(#clipPath2-1)"
         id="path80" />
      <path
         style="fill:none"
         inkscape:connector-curvature="0"
         d="m 421.9912,311 36.0144,0"
         clip-path="url(#clipPath2-1)"
         id="path82" />
      <path
         style="stroke:none"
         inkscape:connector-curvature="0"
         d="m 466.0056,311 -12,-5 3,5 -3,5 z"
         clip-path="url(#clipPath2-1)"
         id="path84" />
      <path
         style="fill:none"
         inkscape:connector-curvature="0"
         d="m 421.9912,319.0627 36.1722,7.2928"
         clip-path="url(#clipPath2-1)"
         id="path86" />
      <path
         style="stroke:none"
         inkscape:connector-curvature="0"
         d="m 466.0056,327.9366 -10.7751,-7.273 1.9526,5.4943 -3.929,4.3085 z"
         clip-path="url(#clipPath2-1)"
         id="path88" />
      <path
         style="fill:none"
         inkscape:connector-curvature="0"
         d="m 421.9912,336 36.0144,0"
         clip-path="url(#clipPath2-1)"
         id="path90" />
      <path
         style="stroke:none"
         inkscape:connector-curvature="0"
         d="m 466.0056,336 -12,-5 3,5 -3,5 z"
         clip-path="url(#clipPath2-1)"
         id="path92" />
      <path
         style="fill:none"
         inkscape:connector-curvature="0"
         d="m 421.9912,344.0627 36.1722,7.2928"
         clip-path="url(#clipPath2-1)"
         id="path94" />
      <path
         style="stroke:none"
         inkscape:connector-curvature="0"
         d="m 466.0056,352.9366 -10.7751,-7.273 1.9526,5.4943 -3.929,4.3085 z"
         clip-path="url(#clipPath2-1)"
         id="path96" />
      <path
         style="fill:none"
         inkscape:connector-curvature="0"
         d="m 421.9912,361 36.0144,0"
         clip-path="url(#clipPath2-1)"
         id="path98" />
      <path
         style="stroke:none"
         inkscape:connector-curvature="0"
         d="m 466.0056,361 -12,-5 3,5 -3,5 z"
         clip-path="url(#clipPath2-1)"
         id="path100" />
      <path
         style="fill:none"
         inkscape:connector-curvature="0"
         d="m 421.9912,369.0627 36.1722,7.2928"
         clip-path="url(#clipPath2-1)"
         id="path102" />
      <path
         style="stroke:none"
         inkscape:connector-curvature="0"
         d="m 466.0056,377.9366 -10.7751,-7.273 1.9526,5.4943 -3.929,4.3085 z"
         clip-path="url(#clipPath2-1)"
         id="path104" />
      <text
         xml:space="preserve"
         style="font-size:40px;font-style:normal;font-weight:normal;line-height:125%;letter-spacing:0px;word-spacing:0px;fill:#000000;fill-opacity:1;stroke:none;font-family:Arial;-inkscape-font-specification:Arial"
         x="46.302967"
         y="-2.4894071"
         id="text3905"
         sodipodi:linespacing="125%"
         transform="translate(327,181)"><tspan
           sodipodi:role="line"
           id="tspan3907"
           x="46.302967"
           y="-2.4894071" /></text>
    </g>
  </g>
</svg>
